<mxfile host="app.diagrams.net" agent="Mozilla/5.0 (Windows NT 10.0; Win64; x64) AppleWebKit/537.36 (KHTML, like Gecko) Chrome/135.0.0.0 Safari/537.36" version="26.2.13">
  <diagram name="Page-1" id="jhdWZvKZTvtmNqUHAxLc">
    <mxGraphModel dx="1428" dy="785" grid="1" gridSize="10" guides="1" tooltips="1" connect="1" arrows="1" fold="1" page="1" pageScale="1" pageWidth="850" pageHeight="1100" math="0" shadow="0">
      <root>
        <mxCell id="0" />
        <mxCell id="1" parent="0" />
        <mxCell id="Gtxps9RbvIcbKM3ggSGd-1" value="Candidate" style="shape=umlActor;verticalLabelPosition=bottom;verticalAlign=top;html=1;outlineConnect=0;" vertex="1" parent="1">
          <mxGeometry x="60" y="400" width="30" height="60" as="geometry" />
        </mxCell>
        <mxCell id="Gtxps9RbvIcbKM3ggSGd-3" value="Đăng Nhập" style="ellipse;whiteSpace=wrap;html=1;" vertex="1" parent="1">
          <mxGeometry x="300" y="180" width="90" height="50" as="geometry" />
        </mxCell>
        <mxCell id="Gtxps9RbvIcbKM3ggSGd-4" value="Chọn giảng viên" style="ellipse;whiteSpace=wrap;html=1;" vertex="1" parent="1">
          <mxGeometry x="170" y="120" width="90" height="60" as="geometry" />
        </mxCell>
        <mxCell id="Gtxps9RbvIcbKM3ggSGd-5" value="Đăng kí" style="ellipse;whiteSpace=wrap;html=1;" vertex="1" parent="1">
          <mxGeometry x="90" y="230" width="90" height="50" as="geometry" />
        </mxCell>
        <mxCell id="Gtxps9RbvIcbKM3ggSGd-6" value="Rãi&amp;nbsp;&lt;span style=&quot;color: rgba(0, 0, 0, 0); font-family: monospace; font-size: 0px; text-align: start; text-wrap-mode: nowrap;&quot;&gt;%3CmxGraphModel%3E%3Croot%3E%3CmxCell%20id%3D%220%22%2F%3E%3CmxCell%20id%3D%221%22%20parent%3D%220%22%2F%3E%3CmxCell%20id%3D%222%22%20value%3D%22%22%20style%3D%22endArrow%3Dclassic%3Bhtml%3D1%3Brounded%3D0%3BentryX%3D0%3BentryY%3D0.5%3BentryDx%3D0%3BentryDy%3D0%3BexitX%3D0.6%3BexitY%3D-0.04%3BexitDx%3D0%3BexitDy%3D0%3Bdashed%3D1%3BexitPerimeter%3D0%3B%22%20edge%3D%221%22%20parent%3D%221%22%3E%3CmxGeometry%20width%3D%2250%22%20height%3D%2250%22%20relative%3D%221%22%20as%3D%22geometry%22%3E%3CmxPoint%20x%3D%22254%22%20y%3D%22228%22%20as%3D%22sourcePoint%22%2F%3E%3CmxPoint%20x%3D%22500%22%20y%3D%22190%22%20as%3D%22targetPoint%22%2F%3E%3C%2FmxGeometry%3E%3C%2FmxCell%3E%3CmxCell%20id%3D%223%22%20value%3D%22%26amp%3Blt%3B%26amp%3Blt%3Binclude%26amp%3Bgt%3B%26amp%3Bgt%3B%22%20style%3D%22edgeLabel%3Bhtml%3D1%3Balign%3Dcenter%3BverticalAlign%3Dmiddle%3Bresizable%3D0%3Bpoints%3D%5B%5D%3B%22%20vertex%3D%221%22%20connectable%3D%220%22%20parent%3D%222%22%3E%3CmxGeometry%20x%3D%220.1351%22%20y%3D%22-1%22%20relative%3D%221%22%20as%3D%22geometry%22%3E%3CmxPoint%20as%3D%22offset%22%2F%3E%3C%2FmxGeometry%3E%3C%2FmxCell%3E%3C%2Froot%3E%3C%2FmxGraphModel%3E&lt;/span&gt;CV" style="ellipse;whiteSpace=wrap;html=1;" vertex="1" parent="1">
          <mxGeometry x="660" y="230" width="80" height="60" as="geometry" />
        </mxCell>
        <mxCell id="Gtxps9RbvIcbKM3ggSGd-7" value="Post CV" style="ellipse;whiteSpace=wrap;html=1;" vertex="1" parent="1">
          <mxGeometry x="570" y="150" width="80" height="50" as="geometry" />
        </mxCell>
        <mxCell id="Gtxps9RbvIcbKM3ggSGd-8" value="" style="endArrow=none;html=1;rounded=0;exitX=0.5;exitY=0.5;exitDx=0;exitDy=0;exitPerimeter=0;entryX=0.378;entryY=1.06;entryDx=0;entryDy=0;entryPerimeter=0;" edge="1" parent="1" source="Gtxps9RbvIcbKM3ggSGd-1" target="Gtxps9RbvIcbKM3ggSGd-5">
          <mxGeometry width="50" height="50" relative="1" as="geometry">
            <mxPoint x="400" y="530" as="sourcePoint" />
            <mxPoint x="450" y="480" as="targetPoint" />
          </mxGeometry>
        </mxCell>
        <mxCell id="Gtxps9RbvIcbKM3ggSGd-9" value="" style="endArrow=classic;html=1;rounded=0;entryX=0;entryY=0.5;entryDx=0;entryDy=0;dashed=1;exitX=0.5;exitY=0;exitDx=0;exitDy=0;" edge="1" parent="1" source="Gtxps9RbvIcbKM3ggSGd-5" target="Gtxps9RbvIcbKM3ggSGd-4">
          <mxGeometry width="50" height="50" relative="1" as="geometry">
            <mxPoint x="155" y="200" as="sourcePoint" />
            <mxPoint x="450" y="480" as="targetPoint" />
          </mxGeometry>
        </mxCell>
        <mxCell id="Gtxps9RbvIcbKM3ggSGd-10" value="&amp;lt;&amp;lt;include&amp;gt;&amp;gt;" style="edgeLabel;html=1;align=center;verticalAlign=middle;resizable=0;points=[];" vertex="1" connectable="0" parent="Gtxps9RbvIcbKM3ggSGd-9">
          <mxGeometry x="0.1351" y="-1" relative="1" as="geometry">
            <mxPoint as="offset" />
          </mxGeometry>
        </mxCell>
        <mxCell id="Gtxps9RbvIcbKM3ggSGd-15" value="" style="endArrow=none;html=1;rounded=0;exitX=0.5;exitY=0.5;exitDx=0;exitDy=0;exitPerimeter=0;" edge="1" parent="1" source="Gtxps9RbvIcbKM3ggSGd-1" target="Gtxps9RbvIcbKM3ggSGd-3">
          <mxGeometry width="50" height="50" relative="1" as="geometry">
            <mxPoint x="180" y="540" as="sourcePoint" />
            <mxPoint x="230" y="490" as="targetPoint" />
          </mxGeometry>
        </mxCell>
        <mxCell id="Gtxps9RbvIcbKM3ggSGd-16" value="" style="endArrow=classic;html=1;rounded=0;entryX=1;entryY=0.5;entryDx=0;entryDy=0;dashed=1;" edge="1" parent="1" target="Gtxps9RbvIcbKM3ggSGd-5">
          <mxGeometry width="50" height="50" relative="1" as="geometry">
            <mxPoint x="300" y="205" as="sourcePoint" />
            <mxPoint x="510" y="200" as="targetPoint" />
          </mxGeometry>
        </mxCell>
        <mxCell id="Gtxps9RbvIcbKM3ggSGd-17" value="&amp;lt;&amp;lt;include&amp;gt;&amp;gt;" style="edgeLabel;html=1;align=center;verticalAlign=middle;resizable=0;points=[];" vertex="1" connectable="0" parent="Gtxps9RbvIcbKM3ggSGd-16">
          <mxGeometry x="0.1351" y="-1" relative="1" as="geometry">
            <mxPoint as="offset" />
          </mxGeometry>
        </mxCell>
        <mxCell id="Gtxps9RbvIcbKM3ggSGd-18" value="Review công ty" style="ellipse;whiteSpace=wrap;html=1;" vertex="1" parent="1">
          <mxGeometry x="670" y="340" width="90" height="60" as="geometry" />
        </mxCell>
        <mxCell id="Gtxps9RbvIcbKM3ggSGd-19" value="Lưu Job" style="ellipse;whiteSpace=wrap;html=1;" vertex="1" parent="1">
          <mxGeometry x="580" y="550" width="110" height="60" as="geometry" />
        </mxCell>
        <mxCell id="Gtxps9RbvIcbKM3ggSGd-20" value="xem lại các Job đã ứng tuyển" style="ellipse;whiteSpace=wrap;html=1;" vertex="1" parent="1">
          <mxGeometry x="650" y="440" width="110" height="70" as="geometry" />
        </mxCell>
        <mxCell id="Gtxps9RbvIcbKM3ggSGd-21" value="Báo cáo task" style="ellipse;whiteSpace=wrap;html=1;" vertex="1" parent="1">
          <mxGeometry x="420" y="650" width="90" height="60" as="geometry" />
        </mxCell>
        <mxCell id="Gtxps9RbvIcbKM3ggSGd-22" value="" style="endArrow=none;html=1;rounded=0;exitX=0.5;exitY=0.5;exitDx=0;exitDy=0;exitPerimeter=0;entryX=0;entryY=0.5;entryDx=0;entryDy=0;" edge="1" parent="1" source="Gtxps9RbvIcbKM3ggSGd-1" target="Gtxps9RbvIcbKM3ggSGd-6">
          <mxGeometry width="50" height="50" relative="1" as="geometry">
            <mxPoint x="85" y="440" as="sourcePoint" />
            <mxPoint x="330" y="236" as="targetPoint" />
          </mxGeometry>
        </mxCell>
        <mxCell id="Gtxps9RbvIcbKM3ggSGd-23" value="" style="endArrow=none;html=1;rounded=0;exitX=0.5;exitY=0.5;exitDx=0;exitDy=0;exitPerimeter=0;entryX=0;entryY=0.5;entryDx=0;entryDy=0;" edge="1" parent="1" source="Gtxps9RbvIcbKM3ggSGd-1" target="Gtxps9RbvIcbKM3ggSGd-21">
          <mxGeometry width="50" height="50" relative="1" as="geometry">
            <mxPoint x="95" y="450" as="sourcePoint" />
            <mxPoint x="340" y="246" as="targetPoint" />
          </mxGeometry>
        </mxCell>
        <mxCell id="Gtxps9RbvIcbKM3ggSGd-24" value="" style="endArrow=none;html=1;rounded=0;exitX=0.5;exitY=0.5;exitDx=0;exitDy=0;exitPerimeter=0;entryX=0;entryY=0.5;entryDx=0;entryDy=0;" edge="1" parent="1" source="Gtxps9RbvIcbKM3ggSGd-1" target="Gtxps9RbvIcbKM3ggSGd-7">
          <mxGeometry width="50" height="50" relative="1" as="geometry">
            <mxPoint x="105" y="460" as="sourcePoint" />
            <mxPoint x="350" y="256" as="targetPoint" />
          </mxGeometry>
        </mxCell>
        <mxCell id="Gtxps9RbvIcbKM3ggSGd-25" value="" style="endArrow=none;html=1;rounded=0;entryX=0.091;entryY=0.167;entryDx=0;entryDy=0;entryPerimeter=0;" edge="1" parent="1" target="Gtxps9RbvIcbKM3ggSGd-19">
          <mxGeometry width="50" height="50" relative="1" as="geometry">
            <mxPoint x="80" y="430" as="sourcePoint" />
            <mxPoint x="490" y="550" as="targetPoint" />
          </mxGeometry>
        </mxCell>
        <mxCell id="Gtxps9RbvIcbKM3ggSGd-26" value="" style="endArrow=none;html=1;rounded=0;exitX=0.5;exitY=0.5;exitDx=0;exitDy=0;exitPerimeter=0;entryX=0;entryY=0.5;entryDx=0;entryDy=0;" edge="1" parent="1" source="Gtxps9RbvIcbKM3ggSGd-1" target="Gtxps9RbvIcbKM3ggSGd-18">
          <mxGeometry width="50" height="50" relative="1" as="geometry">
            <mxPoint x="95" y="450" as="sourcePoint" />
            <mxPoint x="500" y="560" as="targetPoint" />
          </mxGeometry>
        </mxCell>
        <mxCell id="Gtxps9RbvIcbKM3ggSGd-27" value="" style="endArrow=none;html=1;rounded=0;entryX=0;entryY=0.5;entryDx=0;entryDy=0;" edge="1" parent="1" target="Gtxps9RbvIcbKM3ggSGd-20">
          <mxGeometry width="50" height="50" relative="1" as="geometry">
            <mxPoint x="80" y="430" as="sourcePoint" />
            <mxPoint x="510" y="570" as="targetPoint" />
          </mxGeometry>
        </mxCell>
        <mxCell id="Gtxps9RbvIcbKM3ggSGd-31" value="" style="endArrow=classic;html=1;rounded=0;dashed=1;exitX=0;exitY=0.28;exitDx=0;exitDy=0;exitPerimeter=0;" edge="1" parent="1" source="Gtxps9RbvIcbKM3ggSGd-7" target="Gtxps9RbvIcbKM3ggSGd-3">
          <mxGeometry width="50" height="50" relative="1" as="geometry">
            <mxPoint x="310" y="215" as="sourcePoint" />
            <mxPoint x="210" y="235" as="targetPoint" />
          </mxGeometry>
        </mxCell>
        <mxCell id="Gtxps9RbvIcbKM3ggSGd-32" value="&amp;lt;&amp;lt;include&amp;gt;&amp;gt;" style="edgeLabel;html=1;align=center;verticalAlign=middle;resizable=0;points=[];" vertex="1" connectable="0" parent="Gtxps9RbvIcbKM3ggSGd-31">
          <mxGeometry x="0.1351" y="-1" relative="1" as="geometry">
            <mxPoint as="offset" />
          </mxGeometry>
        </mxCell>
        <mxCell id="Gtxps9RbvIcbKM3ggSGd-33" value="" style="endArrow=classic;html=1;rounded=0;entryX=0.722;entryY=1;entryDx=0;entryDy=0;dashed=1;entryPerimeter=0;exitX=0.063;exitY=0.4;exitDx=0;exitDy=0;exitPerimeter=0;" edge="1" parent="1" source="Gtxps9RbvIcbKM3ggSGd-6" target="Gtxps9RbvIcbKM3ggSGd-3">
          <mxGeometry width="50" height="50" relative="1" as="geometry">
            <mxPoint x="560" y="350" as="sourcePoint" />
            <mxPoint x="398" y="224" as="targetPoint" />
          </mxGeometry>
        </mxCell>
        <mxCell id="Gtxps9RbvIcbKM3ggSGd-34" value="&amp;lt;&amp;lt;include&amp;gt;&amp;gt;" style="edgeLabel;html=1;align=center;verticalAlign=middle;resizable=0;points=[];" vertex="1" connectable="0" parent="Gtxps9RbvIcbKM3ggSGd-33">
          <mxGeometry x="0.1351" y="-1" relative="1" as="geometry">
            <mxPoint as="offset" />
          </mxGeometry>
        </mxCell>
        <mxCell id="Gtxps9RbvIcbKM3ggSGd-35" value="" style="endArrow=classic;html=1;rounded=0;entryX=0.678;entryY=0.98;entryDx=0;entryDy=0;dashed=1;entryPerimeter=0;exitX=0;exitY=0.5;exitDx=0;exitDy=0;" edge="1" parent="1" source="Gtxps9RbvIcbKM3ggSGd-18" target="Gtxps9RbvIcbKM3ggSGd-3">
          <mxGeometry width="50" height="50" relative="1" as="geometry">
            <mxPoint x="570" y="360" as="sourcePoint" />
            <mxPoint x="375" y="240" as="targetPoint" />
          </mxGeometry>
        </mxCell>
        <mxCell id="Gtxps9RbvIcbKM3ggSGd-36" value="&amp;lt;&amp;lt;include&amp;gt;&amp;gt;" style="edgeLabel;html=1;align=center;verticalAlign=middle;resizable=0;points=[];" vertex="1" connectable="0" parent="Gtxps9RbvIcbKM3ggSGd-35">
          <mxGeometry x="0.1351" y="-1" relative="1" as="geometry">
            <mxPoint as="offset" />
          </mxGeometry>
        </mxCell>
        <mxCell id="Gtxps9RbvIcbKM3ggSGd-37" value="" style="endArrow=classic;html=1;rounded=0;entryX=0.778;entryY=1;entryDx=0;entryDy=0;dashed=1;entryPerimeter=0;" edge="1" parent="1" source="Gtxps9RbvIcbKM3ggSGd-20" target="Gtxps9RbvIcbKM3ggSGd-3">
          <mxGeometry width="50" height="50" relative="1" as="geometry">
            <mxPoint x="580" y="370" as="sourcePoint" />
            <mxPoint x="385" y="250" as="targetPoint" />
          </mxGeometry>
        </mxCell>
        <mxCell id="Gtxps9RbvIcbKM3ggSGd-38" value="&amp;lt;&amp;lt;include&amp;gt;&amp;gt;" style="edgeLabel;html=1;align=center;verticalAlign=middle;resizable=0;points=[];" vertex="1" connectable="0" parent="Gtxps9RbvIcbKM3ggSGd-37">
          <mxGeometry x="0.1351" y="-1" relative="1" as="geometry">
            <mxPoint as="offset" />
          </mxGeometry>
        </mxCell>
        <mxCell id="Gtxps9RbvIcbKM3ggSGd-39" value="" style="endArrow=classic;html=1;rounded=0;entryX=0.667;entryY=0.98;entryDx=0;entryDy=0;dashed=1;entryPerimeter=0;exitX=0.382;exitY=0;exitDx=0;exitDy=0;exitPerimeter=0;" edge="1" parent="1" source="Gtxps9RbvIcbKM3ggSGd-19" target="Gtxps9RbvIcbKM3ggSGd-3">
          <mxGeometry width="50" height="50" relative="1" as="geometry">
            <mxPoint x="656" y="515" as="sourcePoint" />
            <mxPoint x="380" y="240" as="targetPoint" />
          </mxGeometry>
        </mxCell>
        <mxCell id="Gtxps9RbvIcbKM3ggSGd-40" value="&amp;lt;&amp;lt;include&amp;gt;&amp;gt;" style="edgeLabel;html=1;align=center;verticalAlign=middle;resizable=0;points=[];" vertex="1" connectable="0" parent="Gtxps9RbvIcbKM3ggSGd-39">
          <mxGeometry x="0.1351" y="-1" relative="1" as="geometry">
            <mxPoint as="offset" />
          </mxGeometry>
        </mxCell>
        <mxCell id="Gtxps9RbvIcbKM3ggSGd-41" value="" style="endArrow=classic;html=1;rounded=0;entryX=0.611;entryY=1.02;entryDx=0;entryDy=0;dashed=1;entryPerimeter=0;exitX=0.378;exitY=-0.05;exitDx=0;exitDy=0;exitPerimeter=0;" edge="1" parent="1" source="Gtxps9RbvIcbKM3ggSGd-21" target="Gtxps9RbvIcbKM3ggSGd-3">
          <mxGeometry width="50" height="50" relative="1" as="geometry">
            <mxPoint x="666" y="525" as="sourcePoint" />
            <mxPoint x="390" y="250" as="targetPoint" />
          </mxGeometry>
        </mxCell>
        <mxCell id="Gtxps9RbvIcbKM3ggSGd-42" value="&amp;lt;&amp;lt;include&amp;gt;&amp;gt;" style="edgeLabel;html=1;align=center;verticalAlign=middle;resizable=0;points=[];" vertex="1" connectable="0" parent="Gtxps9RbvIcbKM3ggSGd-41">
          <mxGeometry x="0.1351" y="-1" relative="1" as="geometry">
            <mxPoint as="offset" />
          </mxGeometry>
        </mxCell>
      </root>
    </mxGraphModel>
  </diagram>
</mxfile>
